# xmcd CD database file
# Copyright (C) 1995-1998 Ti Kan
#
# Track frame offsets:
#	150
#	21635
#	45205
#	67790
#	90529
#	119230
#	140712
#	169021
#	190229
#
# Disc length: 2834 seconds
#
# Revision: 1
# Processed by: cddbd v1.4PL0 Copyright (c) Steve Scherf et al.
# Submitted via: CDex 1.30Release
#
DISCID=7b0b1009
DTITLE=Loco Cropdusters - Buggin' Out!
DYEAR=1999
DGENRE=Blues
TTITLE0=Hot Weather
TTITLE1=Cowtown Girl
TTITLE2=Hard As Nails
TTITLE3=Fries With That Shake
TTITLE4=One Too Many
TTITLE5=Gatortail
TTITLE6=Shine Bright
TTITLE7=Riot At The Rodeo
TTITLE8=unknown
EXTD=YEAR: 1999 ID3G:   0
EXTT0=
EXTT1=
EXTT2=
EXTT3=
EXTT4=
EXTT5=
EXTT6=
EXTT7=
EXTT8=
PLAYORDER=
